<?xml version="1.0" encoding="iso-8859-1"?>
<svg version="1.1" id="Calque_1" xmlns="http://www.w3.org/2000/svg" xmlns:xlink="http://www.w3.org/1999/xlink" x="0px" y="0px"
	 width="432px" height="432px" viewBox="0 0 432 432" enable-background="new 0 0 432 432" xml:space="preserve">
<g>
	<path fill="#73C7FF" d="M129.867,180.156c-0.305-0.241-0.528-0.451-0.783-0.611c-4.068-2.563-8.145-5.111-12.207-7.684
		c-0.608-0.385-1.13-0.334-1.718,0.009c-1.785,1.043-3.637,1.949-5.667,2.407c-8.381,1.892-15.447-0.494-21.101-6.836
		c-3.576-4.011-5.439-8.841-5.837-14.235c-0.277-3.752,0.336-7.319,1.899-10.73c1.208-2.637,2.929-4.891,5.175-6.719
		c3.353-2.73,7.063-4.753,11.388-5.452c3.75-0.606,7.402-0.107,10.94,1.202c7.929,2.934,12.669,8.65,14.551,16.825
		c0.139,0.602,0.309,1.202,0.383,1.813c0.129,1.068,0.665,1.862,1.522,2.459c1.437,1.001,2.862,2.021,4.332,2.972
		c2.97,1.921,5.966,3.803,8.955,5.696c0.455,0.288,0.93,0.545,1.548,0.906c-0.079-0.72-0.145-1.255-0.196-1.79
		c-0.35-3.658-0.649-7.322-1.06-10.973c-0.388-3.445-0.899-6.877-1.347-10.316c-0.31-2.384-0.682-4.766-0.355-7.181
		c0.046-0.339,0.113-0.678,0.209-1.006c0.627-2.139,2.26-3.261,4.448-2.901c1.174,0.193,2.35,0.53,3.452,0.98
		c4.617,1.884,8.992,4.259,13.347,6.68c2.802,1.558,4.236,3.912,4.55,7.032c0.373,3.702,0.32,7.408,0.1,11.116
		c-0.28,4.732-0.635,9.462-0.47,14.209c0.018,0.513,0.098,1.024,0.154,1.535c0.11,1.004,0.558,1.839,1.32,2.487
		c0.68,0.578,1.358,1.169,2.097,1.664c2.597,1.737,5.217,3.441,7.836,5.144c0.43,0.28,0.896,0.508,1.355,0.742
		c1.28,0.654,2.622,0.854,3.988,0.358c1.772-0.644,3.559-1.269,5.271-2.053c3.465-1.586,6.888-3.262,10.317-4.927
		c0.925-0.449,1.808-0.986,2.706-1.489c0.984-0.551,1.63-1.392,1.867-2.477c0.256-1.169,0.505-2.357,0.577-3.547
		c0.258-4.255,0.278-8.515,0.058-12.775c-0.044-0.857-0.052-1.721,0.008-2.575c0.05-0.727-0.184-1.292-0.747-1.7
		c-0.888-0.643-1.755-1.341-2.721-1.845c-2.311-1.208-4.706-2.257-7.01-3.478c-4.429-2.348-8.792-4.82-13.232-7.146
		c-3.467-1.816-5.612-4.593-6.753-8.298c-0.844-2.74-1.377-5.53-1.731-8.358c-0.213-1.7-0.334-3.419-0.367-5.132
		c-0.019-0.983,0.132-1.993,0.364-2.953c0.502-2.068,2.061-3.333,4.178-3.545c1.294-0.129,2.557,0.049,3.73,0.569
		c1.346,0.596,2.676,1.249,3.945,1.993c2.559,1.5,4.835,3.387,7.053,5.347c2.781,2.457,5.549,4.93,8.381,7.327
		c1.095,0.927,2.335,1.687,3.542,2.473c0.409,0.266,0.917,0.38,1.527,0.622c0.052-0.546,0.111-0.908,0.118-1.27
		c0.042-2.13,0.064-4.26,0.107-6.39c0.07-3.47,0.117-6.94,0.249-10.407c0.036-0.936-0.313-1.498-0.991-2.077
		c-1.486-1.269-2.942-2.582-4.318-3.97c-3.232-3.26-4.951-7.25-5.697-11.757c-1.138-6.878,1.026-12.671,5.592-17.697
		c3.973-4.373,8.892-6.873,14.822-7.469c4.049-0.407,7.984-0.024,11.768,1.363c5.923,2.171,10.128,6.209,12.44,12.128
		c1.538,3.938,2.286,8.002,1.56,12.212c-0.278,1.611-0.72,3.232-1.354,4.736c-1.848,4.38-4.466,8.21-8.551,10.834
		c-1.174,0.754-1.699,1.742-1.873,3.108c-0.404,3.179-0.415,6.374-0.534,9.565c-0.057,1.545-0.035,3.092-0.047,4.639
		c-0.003,0.332,0,0.663,0,1.226c0.519-0.38,0.878-0.615,1.206-0.888c2.983-2.485,5.936-5.007,8.946-7.458
		c2.956-2.407,5.947-4.774,8.968-7.1c1.139-0.877,2.364-1.661,3.62-2.364c2.669-1.494,5.143-0.739,6.622,1.941
		c0.776,1.407,1.118,2.953,1.339,4.52c0.603,4.269,0.636,8.567,0.392,12.858c-0.188,3.305-1.527,6.143-3.853,8.547
		c-2.725,2.815-5.88,5.073-9.15,7.164c-3.123,1.997-6.35,3.832-9.539,5.725c-1.27,0.754-2.549,1.492-3.844,2.201
		c-1.776,0.972-2.836,2.468-3.251,4.416c-0.286,1.341-0.558,2.694-0.693,4.055c-0.235,2.357-0.347,4.725-0.534,7.087
		c-0.098,1.244,0.434,2.123,1.485,2.716c0.717,0.404,1.434,0.817,2.186,1.148c5.749,2.532,11.519,5.02,17.256,7.578
		c1.845,0.823,3.702,1.032,5.62,0.5c1.617-0.448,3.223-0.952,4.796-1.536c1.607-0.597,3.153-1.359,4.753-1.978
		c1.036-0.401,1.672-1.097,1.815-2.167c0.3-2.243,0.674-4.489,0.779-6.744c0.249-5.353,0.33-10.714,0.539-16.07
		c0.094-2.4,0.275-4.799,0.516-7.189c0.304-3.015,1.753-5.489,4.005-7.447c1.525-1.326,3.131-2.587,4.828-3.68
		c2.423-1.56,4.959-2.946,7.456-4.389c0.443-0.256,0.92-0.47,1.404-0.634c2.078-0.707,3.919-0.032,5.049,1.845
		c0.813,1.349,1.144,2.86,1.409,4.387c0.562,3.236,0.577,6.504,0.404,9.764c-0.273,5.177-0.512,10.359-1.189,15.506
		c-0.035,0.268-0.035,0.541-0.053,0.842c0.131,0.013,0.237,0.057,0.309,0.026c3.028-1.295,6.053-2.597,9.078-3.899
		c0.694-0.298,1.368-0.659,2.084-0.885c1.118-0.352,1.548-1.067,1.555-2.216c0.009-1.553,0.296-3.085,0.833-4.541
		c0.569-1.544,1.127-3.11,1.89-4.561c3.84-7.309,10.082-11.096,18.133-12.126c1.478-0.189,2.949,0.004,4.388,0.399
		c2.872,0.789,5.568,1.98,8.001,3.696c4.908,3.463,7.546,8.371,9.017,14.081c2.508,9.734-3.69,22.542-16.461,25.362
		c-3.32,0.733-6.615,0.741-9.884-0.191c-1.016-0.289-1.988-0.742-2.961-1.165c-0.595-0.258-1.153-0.601-1.834-0.962
		c-4.795,3.959-10.22,6.995-15.721,10.22c0.558,0.317,0.948,0.58,1.371,0.771c3.097,1.397,6.183,2.822,9.307,4.158
		c5.145,2.199,10.327,4.312,15.468,6.521c0.993,0.427,1.966,1.016,2.779,1.724c1.815,1.58,1.898,3.561,0.278,5.332
		c-0.737,0.805-1.568,1.548-2.448,2.195c-3.785,2.781-7.983,4.834-12.246,6.753c-1.184,0.533-2.416,0.979-3.66,1.35
		c-1.226,0.365-2.48,0.139-3.64-0.312c-1.757-0.683-3.511-1.396-5.192-2.245c-3.62-1.829-7.056-3.978-10.467-6.174
		c-3.436-2.212-6.946-4.309-10.417-6.466c-0.861-0.535-1.752-0.697-2.757-0.506c-1.632,0.31-3.197,0.795-4.67,1.561
		c-2.072,1.077-4.121,2.197-6.206,3.247c-1.255,0.632-2.09,1.575-2.363,2.938c-0.424,2.118-0.887,4.237-1.139,6.378
		c-0.675,5.741-0.637,11.52-0.803,17.289c-0.043,1.5,0.461,2.683,1.641,3.583c0.518,0.395,1.032,0.807,1.594,1.13
		c4.595,2.642,9.403,4.827,14.374,6.66c0.454,0.167,0.817,0.176,1.258-0.074c6.54-3.71,13.092-7.4,19.639-11.098
		c1.405-0.794,2.768-1.672,4.215-2.378c1.163-0.567,2.399-1.029,3.649-1.364c1.773-0.475,3.571-0.143,5.3,0.298
		c4.587,1.172,8.898,3.029,12.93,5.512c1.474,0.908,2.383,2.167,2.178,4.008c-0.115,1.033-0.557,1.948-1.292,2.634
		c-0.947,0.886-1.941,1.766-3.046,2.428c-1.645,0.986-3.368,1.863-5.123,2.639c-6.448,2.852-12.223,6.825-18.055,10.706
		c-0.135,0.09-0.247,0.213-0.437,0.379c0.342,0.218,0.62,0.408,0.91,0.577c4.283,2.491,8.81,4.482,13.323,6.502
		c0.607,0.272,1.191,0.274,1.801,0.076c1.077-0.35,2.145-0.729,3.232-1.046c8.001-2.338,15.412-1.129,21.971,4.051
		c4.72,3.728,7.27,8.78,7.947,14.755c0.878,7.751-1.842,14.251-7.124,19.753c-2.567,2.675-5.854,4.215-9.488,4.848
		c-7.072,1.233-13.874,0.254-20.142-3.253c-5.748-3.216-9.028-8.198-9.493-14.88c-0.048-0.685-0.123-1.371-0.123-2.057
		c0-0.672-0.235-1.207-0.743-1.623c-0.931-0.76-1.825-1.577-2.817-2.248c-3.215-2.173-6.467-4.292-9.709-6.425
		c-0.277-0.183-0.587-0.317-0.955-0.513c0,0.917-0.017,1.728,0.004,2.537c0.029,1.098,0.066,2.198,0.136,3.294
		c0.392,6.099,0.809,12.197,1.184,18.297c0.095,1.539,0.083,3.085,0.086,4.628c0.001,0.405-0.097,0.819-0.202,1.215
		c-0.568,2.157-2.394,3.418-4.587,3.02c-1.239-0.224-2.467-0.612-3.639-1.08c-3.551-1.418-6.841-3.349-10.106-5.32
		c-0.47-0.284-0.925-0.594-1.398-0.874c-2.19-1.299-3.424-3.262-3.787-5.731c-0.249-1.693-0.424-3.417-0.41-5.124
		c0.048-5.532,0.323-11.055,0.946-16.558c0.224-1.978,0.329-3.97,0.526-5.951c0.117-1.172-0.316-2.073-1.191-2.806
		c-0.474-0.397-0.933-0.813-1.42-1.194c-3.472-2.714-7.156-5.091-11.055-7.158c-1.862-0.987-3.621-1.115-5.482-0.153
		c-3.14,1.623-6.325,3.163-9.417,4.873c-2.643,1.462-5.157,3.153-7.772,4.667c-1.766,1.022-2.838,2.407-3.001,4.488
		c-0.186,2.361-0.516,4.711-0.662,7.074c-0.195,3.153-0.263,6.314-0.415,9.471c-0.024,0.494,0.084,0.912,0.442,1.201
		c0.823,0.666,1.622,1.399,2.542,1.899c1.686,0.917,3.426,1.748,5.192,2.503c5.278,2.257,10.377,4.865,15.452,7.541
		c3.906,2.06,6.05,5.209,6.811,9.482c0.748,4.199,1.315,8.414,1.481,12.676c0.036,0.92,0.021,1.867-0.154,2.766
		c-0.449,2.298-2.257,3.561-4.591,3.315c-1.242-0.131-2.432-0.475-3.536-1.049c-1.065-0.554-2.131-1.121-3.128-1.786
		c-6.088-4.058-12.156-8.146-18.231-12.223c-0.22-0.148-0.453-0.278-0.833-0.511c-0.08,0.965-0.189,1.8-0.212,2.637
		c-0.106,3.847-0.184,7.695-0.282,11.542c-0.018,0.721-0.056,1.443-0.135,2.159c-0.076,0.686,0.174,1.187,0.688,1.618
		c0.921,0.773,1.844,1.547,2.725,2.364c3.9,3.615,6.7,7.922,7.866,13.147c1.255,5.624,0.051,10.867-2.978,15.678
		c-3.994,6.342-9.822,9.915-17.197,11.046c-3.125,0.479-6.238,0.477-9.309-0.302c-3.902-0.991-7.202-3.017-9.873-6.034
		c-3.922-4.432-6.162-9.612-6.845-15.483c-0.769-6.603,1.015-12.437,5.234-17.548c1.372-1.663,3.04-2.987,4.876-4.084
		c0.816-0.487,1.268-1.095,1.333-2.039c0.093-1.335,0.257-2.666,0.338-4.002c0.207-3.429,0.386-6.86,0.57-10.29
		c0.022-0.409,0.003-0.82,0.003-1.419c-0.366,0.251-0.637,0.423-0.892,0.615c-6.419,4.839-12.828,9.692-19.261,14.514
		c-1.51,1.132-3.082,2.185-4.659,3.223c-0.918,0.605-1.913,1.082-3.031,1.225c-1.932,0.247-3.429-0.465-4.502-2.069
		c-0.64-0.957-1.02-2.037-1.19-3.16c-0.247-1.627-0.513-3.267-0.555-4.906c-0.088-3.434-0.066-6.871-0.023-10.307
		c0.014-1.126,0.176-2.261,0.378-3.373c0.291-1.603,1.05-2.99,2.331-4.017c1.042-0.836,2.116-1.648,3.246-2.357
		c4.815-3.022,10.007-5.3,15.204-7.555c2.329-1.011,4.713-1.897,7.05-2.89c2.263-0.962,2.43-1.18,2.792-3.608
		c0.207-1.391,0.373-2.797,0.43-4.201c0.138-3.432,0.188-6.868,0.303-10.301c0.051-1.52-0.515-2.769-1.619-3.748
		c-1-0.886-2.04-1.742-3.14-2.498c-4.647-3.195-9.588-5.906-14.449-8.752c-1.669-0.978-3.33-1.069-5.133-0.449
		c-3.627,1.247-6.984,3.034-10.274,4.968c-1.036,0.609-2.039,1.289-3.123,1.798c-0.892,0.419-1.06,1.075-1.014,1.917
		c0.12,2.228,0.259,4.455,0.355,6.684c0.233,5.425,0.313,10.852,0.066,16.279c-0.08,1.75-0.181,3.499-0.222,5.249
		c-0.078,3.299-1.368,6.04-3.945,8.053c-3.329,2.601-6.775,5.061-10.63,6.845c-1.011,0.468-2.136,0.789-3.241,0.934
		c-1.855,0.244-3.19-0.659-3.848-2.409c-0.476-1.267-0.656-2.601-0.657-3.945c-0.001-2.268,0.051-4.535,0.082-6.803
		c0.062-4.535,0.118-9.071,0.189-13.606c0.02-1.271,0.09-2.541,0.133-3.811c0.009-0.269,0.001-0.538,0.001-0.933
		c-0.413,0.151-0.734,0.244-1.034,0.383c-1.152,0.535-2.321,1.04-3.44,1.638c-3.332,1.779-6.631,3.619-9.97,5.385
		c-0.858,0.454-1.205,0.989-1.203,1.998c0.012,6.889-2.81,12.4-8.215,16.639c-2.522,1.978-5.409,3.086-8.498,3.748
		c-5.15,1.104-10.19,0.692-15.069-1.27c-5.489-2.208-9.217-6.213-11.487-11.62c-1.166-2.778-1.806-5.7-2.037-8.691
		c-0.262-3.397,0.496-6.641,1.953-9.691c2.452-5.129,6.281-9.003,11.291-11.627c4.503-2.358,9.303-2.467,14.15-1.258
		c1.759,0.439,3.483,1.05,5.182,1.691c1,0.378,1.935,0.449,2.884-0.006c1.7-0.816,3.429-1.587,5.067-2.515
		c2.988-1.692,5.918-3.485,8.871-5.237c0.114-0.067,0.214-0.157,0.433-0.32c-0.515-0.274-0.944-0.519-1.387-0.735
		c-4.259-2.074-8.523-4.137-12.781-6.214c-3.055-1.49-6.113-2.973-9.147-4.504c-1.07-0.54-2.119-1.147-3.097-1.837
		c-2.747-1.938-2.992-4.369-0.65-6.76c0.858-0.876,1.844-1.656,2.867-2.338c3.891-2.594,7.977-4.855,12.158-6.946
		c1.717-0.859,3.495-1.021,5.286-0.361c1.413,0.521,2.811,1.111,4.148,1.801c6.15,3.174,11.868,7.043,17.526,11.005
		c1.378,0.965,2.812,1.851,4.194,2.81c0.873,0.606,1.775,0.709,2.727,0.294c1.101-0.479,2.208-0.953,3.269-1.512
		c2.521-1.328,5.017-2.705,7.523-4.064c0.181-0.098,0.35-0.219,0.532-0.315c1.825-0.952,2.963-2.442,3.334-4.456
		c0.373-2.024,0.761-4.054,0.954-6.099c0.384-4.068,0.652-8.148,0.936-12.225c0.067-0.957-0.001-1.923,0.007-2.885
		c0.007-0.76-0.23-1.445-0.748-1.976c-0.933-0.957-1.845-1.955-2.893-2.772c-3.797-2.959-7.774-5.66-11.938-8.083
		c-0.693-0.403-1.401-0.407-2.079-0.169c-0.998,0.351-2.012,0.729-2.912,1.273c-1.791,1.083-3.565,2.211-5.246,3.454
		c-4.53,3.35-9.007,6.772-13.508,10.16c-0.521,0.392-1.055,0.769-1.601,1.126c-1.701,1.112-3.537,1.466-5.509,0.903
		c-0.89-0.254-1.791-0.499-2.641-0.857c-4.277-1.801-8.443-3.828-12.373-6.312c-0.783-0.495-1.56-1.012-2.273-1.6
		c-2.104-1.732-2.488-3.977-1.137-6.347c0.638-1.119,1.485-2.077,2.486-2.866c1.212-0.955,2.446-1.9,3.76-2.702
		c5.607-3.421,11.425-6.437,17.51-8.924C129.379,180.405,129.58,180.295,129.867,180.156z M209.133,215.305
		c-2.929,0.991-5.762,1.92-8.575,2.908c-4.64,1.63-9.186,3.487-13.32,6.191c-1.371,0.897-2.726,1.894-3.856,3.068
		c-2.233,2.319-3.44,5.104-3.057,8.419c0.497,4.298,4.203,7.119,8.716,5.7c1.622-0.51,3.09-1.325,4.488-2.269
		c2.802-1.891,5.38-4.063,7.65-6.562c3.395-3.738,6.706-7.552,10.049-11.337c0.306-0.347,0.585-0.719,0.876-1.079
		c-0.201,1.11-0.554,2.144-0.818,3.2c-1.403,5.599-2.515,11.257-3.266,16.979c-0.393,2.996-0.63,6.011-0.281,9.041
		c0.196,1.694,0.64,3.305,1.51,4.775c2.142,3.619,6.574,4.537,9.982,2.096c1.693-1.213,2.721-2.879,3.344-4.824
		c1.032-3.223,1.209-6.532,0.963-9.882c-0.249-3.398-0.858-6.742-1.574-10.065c-0.787-3.654-1.294-7.372-2.454-10.944
		c-0.053-0.163-0.007-0.359-0.007-0.671c0.226,0.161,0.341,0.222,0.43,0.309c1.507,1.456,3.003,2.923,4.517,4.372
		c4.149,3.969,8.404,7.809,13.198,11.01c2.188,1.461,4.498,2.651,7.023,3.377c1.047,0.301,2.145,0.502,3.232,0.574
		c2.028,0.135,3.907-0.353,5.37-1.866c1.912-1.976,2.138-4.309,1.215-6.785c-0.593-1.592-1.54-2.987-2.749-4.194
		c-1.515-1.512-3.202-2.804-5.035-3.908c-2.952-1.779-6.064-3.23-9.33-4.311c-3.45-1.143-6.944-2.156-10.418-3.229
		c-0.325-0.1-0.642-0.223-1.083-0.377c0.255-0.121,0.342-0.18,0.439-0.207c5.146-1.413,10.048-3.473,14.927-5.596
		c3.098-1.348,6.023-2.995,8.752-4.987c1.561-1.14,2.982-2.429,4.204-3.931c0.989-1.214,1.731-2.55,2.098-4.088
		c0.912-3.817-1.581-7.349-5.482-7.762c-1.552-0.165-3.088-0.067-4.612,0.232c-2.376,0.466-4.602,1.371-6.777,2.399
		c-7.356,3.478-13.324,8.656-18.322,15.014c-0.547,0.695-1.079,1.401-1.618,2.102c0.014-0.4,0.155-0.734,0.289-1.07
		c0.267-0.668,0.591-1.321,0.784-2.01c0.814-2.907,1.644-5.812,2.362-8.743c0.875-3.578,1.388-7.213,1.344-10.911
		c-0.029-2.456-0.361-4.862-1.235-7.169c-0.718-1.893-1.763-3.572-3.395-4.824c-2.634-2.021-5.667-1.81-7.996,0.549
		c-0.98,0.992-1.669,2.172-2.226,3.44c-1.028,2.34-1.35,4.823-1.395,7.339c-0.084,4.767,0.636,9.452,1.733,14.071
		c0.767,3.23,1.722,6.415,2.62,9.718c-0.199,0.133-0.502,0.336-0.831,0.557c-0.353-0.292-0.67-0.553-0.984-0.816
		c-3.297-2.751-6.559-5.546-9.901-8.242c-2.785-2.247-5.766-4.215-9.048-5.689c-2.627-1.18-5.365-1.899-8.251-2.018
		c-1.535-0.063-3.018,0.148-4.397,0.86c-1.994,1.03-2.883,3.014-2.347,5.186c0.252,1.023,0.774,1.902,1.429,2.711
		c1.115,1.375,2.417,2.557,3.947,3.431c1.815,1.037,3.631,2.119,5.56,2.902c6.998,2.837,14.103,5.363,21.583,6.754
		c0.022,0.08,0.074,0.176,0.07,0.269C209.19,214.763,209.157,215.034,209.133,215.305z M104.277,139.571
		c-4.09,0.21-7.887,2.054-10.471,5.987c-1.614,2.458-2.277,5.193-1.675,8.157c0.747,3.672,2.598,6.675,5.388,9.143
		c4.067,3.598,9.878,3.465,13.977,0.804c3.615-2.346,5.566-5.781,6.184-10.009c0.527-3.61-0.343-6.846-2.813-9.535
		C112.191,141.203,108.822,139.676,104.277,139.571z M217.016,356.026c3.21-0.144,6.511-0.93,9.316-3.161
		c3.416-2.716,5.038-6.228,4.283-10.592c-1.196-6.917-7.389-12.03-14.237-11.595c-3.901,0.248-7.003,1.901-9.132,5.164
		c-1.886,2.89-2.767,6.076-2.418,9.581C205.453,351.707,210.409,356.16,217.016,356.026z M213.81,100.593
		c4.906-0.081,8.666-1.427,11.61-4.814c2.747-3.161,3.614-6.746,2.591-10.731c-1.082-4.216-3.932-6.98-7.813-8.742
		c-1.979-0.899-4.082-1.238-6.234-0.929c-5.125,0.737-9.425,4.811-10.567,9.861c-0.751,3.319-0.313,6.498,1.109,9.531
		c1.307,2.787,3.478,4.662,6.498,5.411C212.095,100.449,213.237,100.512,213.81,100.593z M105.39,268.604
		c-1.149,0.177-2.318,0.27-3.442,0.547c-4.028,0.992-7.115,3.195-8.71,7.148c-1.369,3.392-1.475,6.782,0.508,9.983
		c0.991,1.601,2.204,3.077,3.719,4.237c2.527,1.934,5.368,3.141,8.588,2.892c4.58-0.354,8.14-2.553,10.483-6.528
		c1.37-2.324,2.11-4.854,1.62-7.593C117.046,273.085,111.755,268.713,105.39,268.604z M314.528,279.477
		c-0.096,3.311,1.3,5.909,3.771,8.006c1.036,0.878,2.215,1.513,3.47,1.989c4.128,1.565,8.176,1.506,11.931-0.987
		c3.661-2.431,5.359-5.972,4.901-10.329c-0.362-3.436-2.041-6.304-4.674-8.575c-3.119-2.69-6.656-3.233-10.505-1.959
		c-2.992,0.99-5.218,2.954-6.935,5.566C315.224,275.109,314.555,277.19,314.528,279.477z M313.678,152.355
		c0.125,1.021,0.171,2.058,0.39,3.058c0.717,3.273,2.799,5.521,5.612,7.155c1.938,1.126,4.034,1.82,6.296,1.57
		c3.895-0.43,7.033-2.216,9.227-5.52c0.993-1.496,1.517-3.15,1.459-4.96c-0.1-3.107-1.231-5.812-3.233-8.168
		c-4.209-4.951-11.447-5.441-16.283-1.1C314.781,146.514,313.606,149.151,313.678,152.355z M213.954,289.105
		c0.032,0,0.064,0,0.096,0c0.095,4.258,0.146,8.518,0.296,12.774c0.184,5.181,0.441,10.36,0.694,15.539
		c0.042,0.851,0.145,1.717,0.37,2.534c0.233,0.847,1.103,1.352,1.903,1.292c0.86-0.064,1.598-0.727,1.78-1.614
		c0.041-0.2,0.052-0.409,0.056-0.615c0.036-2.197,0.129-4.396,0.09-6.592c-0.148-8.207-0.372-16.413-0.504-24.621
		c-0.107-6.697-0.215-13.393-0.706-20.074c-0.11-1.502-0.361-2.996-0.617-4.482c-0.135-0.782-0.476-1.511-1.12-2.038
		c-0.722-0.591-1.487-0.478-1.86,0.365c-0.258,0.584-0.405,1.244-0.462,1.883c-0.112,1.264-0.182,2.537-0.173,3.805
		c0.031,4.637,0.113,9.273,0.154,13.909C213.973,283.816,213.954,286.46,213.954,289.105z M213.913,135.534
		c-0.01,0-0.019,0.001-0.029,0.001c0.081,2.196,0.204,4.391,0.234,6.587c0.09,6.489,0.129,12.979,0.221,19.468
		c0.018,1.266,0.141,2.535,0.3,3.792c0.134,1.053,0.88,1.692,1.774,1.675c0.904-0.017,1.585-0.676,1.687-1.742
		c0.114-1.195,0.225-2.397,0.215-3.595c-0.07-8.79-0.171-17.579-0.264-26.368c-0.008-0.721-0.029-1.442-0.058-2.162
		c-0.19-4.664-0.387-9.328-0.577-13.992c-0.138-3.395-0.245-6.791-0.419-10.184c-0.043-0.847-0.227-1.702-0.466-2.518
		c-0.236-0.804-0.815-1.232-1.388-1.177c-0.723,0.07-1.078,0.581-1.236,1.211c-0.157,0.628-0.314,1.278-0.318,1.919
		c-0.034,5.219-0.08,10.439-0.025,15.657C213.605,127.918,213.792,131.726,213.913,135.534z M308.937,162.227
		c-0.013-0.83-0.714-1.49-1.584-1.456c-0.369,0.015-0.763,0.096-1.093,0.255c-2.257,1.083-4.565,2.082-6.734,3.321
		c-4.173,2.384-8.247,4.942-12.397,7.369c-5.335,3.12-10.634,6.298-16.131,9.138c-3.78,1.953-7.447,4.126-11.158,6.212
		c-0.416,0.234-0.83,0.502-1.171,0.83c-0.69,0.664-0.773,1.609-0.274,2.348c0.468,0.692,1.346,0.97,2.194,0.663
		c0.32-0.116,0.619-0.296,0.922-0.457c3.668-1.95,7.322-3.929,11.006-5.848c10.484-5.461,20.57-11.614,30.735-17.629
		c1.004-0.594,1.98-1.239,2.947-1.893c0.682-0.461,1.335-0.966,1.984-1.475C308.63,163.252,308.905,162.785,308.937,162.227z
		 M257.114,237.915c-0.563,0.069-1.058,0.159-1.349,0.684c-0.307,0.555-0.02,1.02,0.307,1.41c0.372,0.443,0.797,0.863,1.266,1.2
		c0.947,0.68,1.903,1.363,2.919,1.929c5.07,2.821,10.113,5.695,15.254,8.38c8.762,4.575,17.587,9.031,26.396,13.515
		c1.405,0.715,2.863,1.328,4.309,1.961c0.671,0.294,1.367,0.134,1.805-0.338c0.447-0.481,0.553-1.297,0.186-1.919
		c-0.188-0.318-0.448-0.613-0.734-0.847c-0.45-0.368-0.945-0.684-1.43-1.008c-2.952-1.965-6.138-3.505-9.291-5.103
		c-5.083-2.576-10.193-5.098-15.255-7.714c-6.038-3.121-12.03-6.329-18.058-9.47c-1.49-0.776-3.031-1.456-4.568-2.137
		C258.314,238.212,257.701,238.093,257.114,237.915z M124.993,268.836c0.736-0.269,1.499-0.481,2.204-0.816
		c2.417-1.149,4.82-2.327,7.217-3.517c8.208-4.075,16.418-8.147,24.614-12.247c4.946-2.474,9.819-5.085,14.33-8.31
		c0.752-0.537,1.513-1.089,2.151-1.748c0.408-0.421,0.69-1.025,0.863-1.597c0.181-0.597-0.215-1.014-0.848-0.966
		c-0.472,0.036-0.962,0.138-1.393,0.328c-1.632,0.717-3.275,1.422-4.857,2.241c-3.871,2.004-7.688,4.114-11.568,6.102
		c-8.095,4.147-16.232,8.215-24.32,12.376c-2.775,1.428-5.464,3.024-8.173,4.578c-0.527,0.302-1.007,0.721-1.429,1.162
		c-0.408,0.427-0.47,0.984-0.179,1.532C123.893,268.487,124.353,268.736,124.993,268.836z M125.748,163.502
		c-1.031-0.051-1.535,0.207-1.766,0.729c-0.227,0.512-0.091,0.988,0.562,1.506c0.752,0.597,1.53,1.169,2.341,1.68
		c3.864,2.435,7.703,4.912,11.626,7.249c8.082,4.815,16.209,9.554,24.321,14.317c2.99,1.755,5.973,3.524,9.148,4.939
		c0.281,0.125,0.556,0.284,0.851,0.355c0.778,0.188,1.504-0.123,1.864-0.756c0.392-0.687,0.26-1.472-0.358-2.06
		c-0.148-0.141-0.319-0.262-0.492-0.372c-1.13-0.718-2.249-1.456-3.399-2.142c-11.796-7.034-23.598-14.059-35.397-21.087
		c-2.423-1.443-4.938-2.703-7.546-3.772C126.841,163.818,126.143,163.633,125.748,163.502z M250.666,127.355
		c0.013-0.872-0.24-1.34-0.759-1.634c-0.647-0.367-1.254-0.211-1.825,0.202c-3.419,2.472-6.854,4.923-10.253,7.422
		c-2.819,2.073-5.599,4.199-8.389,6.313c-0.409,0.309-0.803,0.649-1.152,1.023c-0.425,0.456-0.499,1.073-0.232,1.519
		c0.297,0.498,0.779,0.691,1.319,0.61c0.467-0.07,0.944-0.204,1.368-0.409c0.771-0.372,1.523-0.788,2.252-1.236
		c5.74-3.532,11.12-7.557,16.242-11.932c0.338-0.289,0.691-0.581,0.951-0.935C250.441,127.952,250.583,127.527,250.666,127.355z
		 M278.595,269.001c-0.089-0.991-0.144-2.259-0.337-3.506c-0.125-0.809-0.681-1.281-1.277-1.282
		c-0.697-0.001-1.189,0.399-1.419,1.009c-0.252,0.666-0.481,1.371-0.54,2.075c-0.246,2.972-0.507,5.947-0.608,8.926
		c-0.132,3.907-0.165,7.815-0.606,11.706c-0.034,0.296,0.025,0.617,0.106,0.908c0.175,0.626,0.643,0.973,1.26,1.068
		c0.634,0.097,1.167-0.17,1.483-0.715c0.2-0.344,0.331-0.758,0.382-1.155c0.172-1.325,0.312-2.655,0.432-3.986
		c0.185-2.048,0.36-4.097,0.511-6.148C278.195,275.029,278.38,272.155,278.595,269.001z M292.995,186.137
		c-0.951-0.032-1.411,0.213-1.613,0.714c-0.231,0.574,0.053,1.007,0.427,1.381c0.24,0.24,0.527,0.448,0.827,0.608
		c0.999,0.532,1.986,1.098,3.025,1.539c5.087,2.157,10.189,4.278,15.286,6.411c1.076,0.45,2.144,0.924,3.235,1.338
		c0.886,0.337,1.669,0.049,2.046-0.67c0.378-0.72,0.151-1.516-0.642-2.047c-0.425-0.285-0.894-0.513-1.363-0.722
		c-2.508-1.118-4.999-2.277-7.539-3.319c-3.999-1.64-8.029-3.206-12.055-4.781C294.029,186.353,293.379,186.241,292.995,186.137z
		 M182.442,119.032c-0.787,0.017-1.279,0.211-1.556,0.766c-0.266,0.533-0.106,1.025,0.266,1.422c0.349,0.373,0.739,0.723,1.16,1.01
		c1.22,0.831,2.466,1.624,3.699,2.436c4.538,2.987,9.228,5.7,14.223,7.859c0.567,0.245,1.128,0.506,1.708,0.715
		c0.412,0.148,0.824,0.083,1.129-0.273c0.316-0.37,0.424-0.801,0.169-1.237c-0.169-0.29-0.386-0.568-0.633-0.795
		c-0.328-0.3-0.705-0.547-1.062-0.813c-4.36-3.251-9.105-5.891-13.769-8.658c-1.236-0.733-2.557-1.329-3.86-1.943
		C183.396,119.276,182.818,119.153,182.442,119.032z M202.609,297.463c-0.856,0.334-1.745,0.603-2.562,1.014
		c-5.918,2.979-11.822,5.984-17.726,8.991c-0.331,0.169-0.663,0.382-0.917,0.648c-0.436,0.455-0.561,1.011-0.289,1.616
		c0.271,0.604,0.801,0.961,1.483,0.884c0.398-0.045,0.799-0.193,1.166-0.363c2.272-1.055,4.551-2.1,6.799-3.206
		c3.726-1.833,7.438-3.697,11.139-5.581c0.727-0.37,1.414-0.847,2.047-1.363c0.476-0.388,0.656-0.968,0.392-1.587
		C203.866,297.87,203.334,297.614,202.609,297.463z M199.79,243.01c0.027,0.514,0.058,0.842,0.059,1.171
		c0.007,2.647,0.031,5.29,0.928,7.836c0.101,0.287-0.002,0.653-0.038,0.979c-0.081,0.747,0.673,1.644,1.532,1.805
		c0.718,0.135,1.392-0.325,1.597-1.123c0.067-0.261,0.091-0.545,0.07-0.813c-0.046-0.581-0.116-1.161-0.207-1.737
		c-0.428-2.715-0.783-5.434-0.686-8.194c0.024-0.685,0.009-1.378-0.066-2.058c-0.216-1.949-1.792-2.679-3.413-1.604
		c-0.143,0.095-0.282,0.196-0.415,0.305c-2.744,2.247-5.707,4.171-8.757,5.97c-0.206,0.122-0.427,0.234-0.601,0.394
		c-0.553,0.508-0.487,1.291,0.187,1.628c0.344,0.172,0.794,0.237,1.179,0.195c0.467-0.051,0.928-0.237,1.372-0.415
		c2.247-0.898,4.288-2.157,6.225-3.595C199.049,243.536,199.348,243.327,199.79,243.01z M229.505,298.527
		c-0.938-0.037-1.464,0.239-1.687,0.753c-0.239,0.55-0.058,1.174,0.499,1.649c0.181,0.155,0.385,0.289,0.593,0.406
		c0.509,0.285,1.012,0.585,1.542,0.824c5.818,2.615,11.639,5.223,17.464,7.822c0.916,0.409,1.803,0.136,2.247-0.629
		c0.447-0.769,0.254-1.684-0.556-2.269c-0.468-0.338-0.999-0.601-1.529-0.84c-3.846-1.732-7.689-3.475-11.555-5.161
		c-1.79-0.78-3.626-1.458-5.454-2.146C230.496,298.72,229.879,298.622,229.505,298.527z M231.317,240.523
		c0.29,0.119,0.392,0.145,0.478,0.198c2.452,1.52,4.975,2.9,7.652,3.989c0.981,0.399,1.936,0.864,2.907,1.291
		c0.551,0.243,1.102,0.074,1.438-0.426c0.379-0.563,0.318-1.236-0.24-1.773c-0.342-0.329-0.749-0.604-1.162-0.842
		c-2.139-1.233-4.297-2.433-6.433-3.67c-1.364-0.789-2.701-1.625-4.054-2.433c-0.322-0.192-0.645-0.403-0.996-0.522
		c-1.148-0.39-2.171,0.281-2.276,1.49c-0.035,0.407,0.034,0.821,0.035,1.232c0.006,1.541,0.098,3.088-0.017,4.62
		c-0.143,1.912-0.46,3.81-0.7,5.714c-0.03,0.238-0.111,0.496-0.05,0.711c0.087,0.306,0.215,0.686,0.452,0.845
		c0.357,0.239,0.729-0.017,0.992-0.308c0.205-0.227,0.409-0.477,0.53-0.753c0.287-0.658,0.642-1.317,0.757-2.011
		c0.291-1.754,0.487-3.525,0.676-5.294C231.374,241.946,231.317,241.297,231.317,240.523z M203.509,292.487
		c0.022-0.793-0.37-1.319-1.021-1.428c-0.393-0.066-0.842-0.066-1.212,0.06c-1.262,0.431-2.539,0.851-3.742,1.419
		c-5.051,2.386-10.05,4.881-15.244,6.954c-0.375,0.15-0.744,0.369-1.048,0.634c-0.542,0.473-0.635,1.187-0.309,1.778
		c0.325,0.59,0.977,0.873,1.663,0.714c0.166-0.038,0.329-0.096,0.489-0.158c2.459-0.956,4.924-1.896,7.373-2.877
		c4.016-1.609,7.803-3.695,11.645-5.666c0.332-0.17,0.663-0.384,0.916-0.651C203.265,293.006,203.41,292.652,203.509,292.487z
		 M247.848,119.312c-0.021-1.24-1.001-1.895-1.977-1.495c-0.436,0.178-0.835,0.474-1.209,0.769
		c-4.902,3.87-9.797,7.749-14.691,11.63c-0.268,0.213-0.522,0.447-0.763,0.69c-0.168,0.169-0.324,0.357-0.447,0.56
		c-0.328,0.541-0.372,1.102-0.008,1.646c0.341,0.511,0.982,0.735,1.648,0.524c0.386-0.122,0.764-0.319,1.096-0.553
		c1.29-0.908,2.608-1.785,3.83-2.78c3.752-3.055,7.466-6.158,11.19-9.248c0.316-0.262,0.646-0.529,0.886-0.855
		C247.637,119.884,247.764,119.487,247.848,119.312z M282.274,147.344c-0.038-0.001-0.076-0.003-0.114-0.004
		c0-1.306,0.05-2.614-0.016-3.916c-0.05-0.989-0.194-1.982-0.393-2.953c-0.179-0.875-0.742-1.383-1.325-1.386
		c-0.594-0.003-1.085,0.518-1.307,1.396c-0.034,0.133-0.058,0.27-0.07,0.406c-0.108,1.161-0.307,2.323-0.302,3.484
		c0.024,5.392,0.107,10.784,0.164,16.177c0.007,0.618-0.03,1.236-0.013,1.854c0.017,0.634,0.353,1.056,0.915,1.222
		c0.581,0.172,1.176-0.05,1.507-0.596c0.122-0.201,0.22-0.436,0.252-0.666c0.082-0.577,0.149-1.158,0.169-1.74
		c0.046-1.305,0.035-2.611,0.091-3.915C281.966,153.584,282.125,150.464,282.274,147.344z M160.173,163.256
		c-0.399-4.91-0.718-9.355-1.139-13.79c-0.223-2.352-0.608-4.689-0.956-7.027c-0.08-0.535-0.278-1.06-0.477-1.568
		c-0.186-0.474-0.538-0.826-1.089-0.788c-0.543,0.038-0.839,0.422-1.004,0.908c-0.066,0.194-0.14,0.394-0.15,0.595
		c-0.044,0.853-0.151,1.714-0.082,2.56c0.295,3.621,0.645,7.238,0.972,10.857c0.247,2.73,0.429,5.469,1.019,8.157
		c0.238,1.084,0.892,1.703,1.691,1.589C159.806,164.629,160.217,163.947,160.173,163.256z M198.726,188.797
		c-0.87-0.562-1.687-1.115-2.528-1.627c-1.351-0.823-2.738-1.582-4.32-1.858c-0.844-0.147-1.703-0.244-2.533,0.099
		c-0.443,0.183-0.738,0.506-0.775,1.001c-0.037,0.494,0.193,0.882,0.614,1.105c0.421,0.222,0.868,0.425,1.327,0.54
		c1.378,0.347,2.654,0.927,3.862,1.653c1.439,0.864,2.855,1.769,4.283,2.653c0.349,0.216,0.687,0.469,1.065,0.619
		c1.117,0.445,2.181-0.237,2.291-1.439c0.016-0.17,0.01-0.343,0.009-0.514c-0.027-3.224-0.049-6.449-0.088-9.673
		c-0.005-0.443-0.062-0.891-0.154-1.324c-0.101-0.472-0.416-0.789-0.906-0.873c-0.533-0.092-0.944,0.138-1.218,0.58
		c-0.142,0.229-0.268,0.495-0.302,0.758c-0.224,1.73-0.462,3.461-0.611,5.199C198.656,186.694,198.726,187.709,198.726,188.797z
		 M249.564,300.958c-0.046-0.539-0.273-1.029-0.783-1.332c-0.382-0.227-0.788-0.417-1.194-0.597
		c-2.601-1.155-5.186-2.351-7.815-3.44c-2.437-1.009-4.912-1.931-7.393-2.829c-0.896-0.324-1.851-0.511-2.794-0.677
		c-0.711-0.125-1.349,0.248-1.549,0.759c-0.195,0.498-0.016,1.054,0.627,1.492c0.648,0.442,1.335,0.852,2.056,1.156
		c5.339,2.251,10.691,4.474,16.041,6.701c0.315,0.131,0.64,0.267,0.974,0.318C248.684,302.655,249.549,301.923,249.564,300.958z
		 M271.548,159.669c0.016,0.001,0.031,0.002,0.047,0.002c-0.081,1.712-0.182,3.423-0.234,5.136
		c-0.027,0.897,0.531,1.569,1.254,1.627c0.703,0.056,1.25-0.441,1.375-1.356c0.129-0.949,0.177-1.908,0.272-2.862
		c0.374-3.749,0.799-7.495,1.111-11.249c0.164-1.977,0.16-3.97,0.175-5.956c0.005-0.607-0.121-1.23-0.287-1.818
		c-0.209-0.742-0.712-1.1-1.323-1.082c-0.578,0.017-1.001,0.364-1.234,1.06c-0.097,0.29-0.169,0.597-0.193,0.902
		c-0.205,2.596-0.425,5.192-0.585,7.791C271.767,154.463,271.672,157.067,271.548,159.669z M284.633,280.489
		c0-2.881,0.026-5.763-0.013-8.644c-0.014-1.057-0.124-2.122-0.3-3.164c-0.128-0.757-0.67-1.174-1.24-1.178
		c-0.607-0.005-1.142,0.486-1.275,1.268c-0.109,0.639-0.179,1.293-0.184,1.941c-0.037,4.629-0.064,9.258-0.071,13.887
		c-0.003,1.921,0.041,3.841,0.085,5.762c0.02,0.892,0.476,1.437,1.218,1.538c0.76,0.103,1.414-0.375,1.632-1.238
		c0.091-0.362,0.143-0.744,0.144-1.117C284.637,286.526,284.632,283.507,284.633,280.489z M309.27,230.281
		c-0.01-0.895-0.541-1.366-1.25-1.284c-0.334,0.039-0.673,0.15-0.98,0.292c-0.777,0.361-1.551,0.733-2.302,1.145
		c-2.887,1.586-5.765,3.186-8.643,4.788c-2.128,1.185-4.256,2.371-6.37,3.58c-0.379,0.217-0.749,0.501-1.026,0.834
		c-0.404,0.487-0.444,1.067-0.12,1.636c0.325,0.57,0.852,0.82,1.472,0.733c0.43-0.06,0.859-0.238,1.25-0.438
		c1.099-0.562,2.169-1.182,3.268-1.746c4.247-2.181,8.37-4.575,12.354-7.205c0.627-0.414,1.225-0.888,1.767-1.407
		C308.991,230.919,309.15,230.481,309.27,230.281z M185.558,214.755c-0.524,0.27-0.853,0.451-1.191,0.613
		c-2.239,1.071-4.254,2.499-6.251,3.952c-0.886,0.644-1.094,1.334-0.672,1.999c0.444,0.699,1.214,0.796,2.184,0.257
		c0.389-0.216,0.755-0.473,1.14-0.698c3.046-1.776,5.99-3.754,9.42-4.773c0.13-0.039,0.255-0.103,0.374-0.17
		c0.487-0.272,0.764-0.68,0.771-1.246c0.007-0.613-0.287-1.055-0.83-1.308c-0.308-0.143-0.641-0.24-0.972-0.323
		c-3.993-1.009-7.95-2.117-11.62-4.055c-0.239-0.126-0.507-0.216-0.772-0.272c-0.393-0.082-0.749-0.015-0.97,0.384
		c-0.2,0.363-0.094,0.703,0.166,0.938c0.583,0.525,1.155,1.103,1.833,1.474c1.289,0.706,2.637,1.312,3.985,1.903
		C183.211,213.892,184.306,214.271,185.558,214.755z M231.689,184.152c0.036-0.366,0.061-0.668,0.097-0.968
		c0.255-2.119,0.363-4.241-0.113-6.341c-0.133-0.587-0.403-1.162-0.71-1.684c-0.26-0.441-0.739-0.612-1.261-0.456
		c-0.54,0.161-0.743,0.591-0.748,1.107c-0.004,0.479,0.022,0.962,0.083,1.437c0.319,2.509,0.202,4.992-0.368,7.459
		c-0.106,0.461-0.13,0.956-0.103,1.43c0.058,1.001,0.796,1.752,1.795,1.762c0.569,0.006,1.172-0.09,1.706-0.287
		c2.996-1.107,6.055-1.985,9.174-2.666c0.427-0.093,0.862-0.257,1.231-0.487c0.543-0.339,0.716-0.974,0.518-1.539
		c-0.197-0.561-0.711-0.867-1.395-0.797c-0.545,0.056-1.086,0.152-1.63,0.218c-2.62,0.32-5.261,0.537-7.71,1.653
		C232.105,184.062,231.935,184.085,231.689,184.152z M160.307,281.153c0.017,0,0.034-0.001,0.052-0.001
		c-0.081-3.428-0.132-6.858-0.255-10.285c-0.054-1.503-0.218-3.006-0.404-4.499c-0.061-0.49-0.269-1.006-0.549-1.415
		c-0.461-0.674-1.274-0.635-1.693,0.065c-0.221,0.37-0.366,0.823-0.413,1.253c-0.119,1.089-0.263,2.189-0.222,3.278
		c0.194,5.069,0.436,10.137,0.69,15.204c0.048,0.955,0.181,1.911,0.361,2.851c0.123,0.643,0.608,0.961,1.175,0.943
		c0.568-0.018,0.978-0.366,1.107-1.025c0.092-0.468,0.139-0.952,0.144-1.429C160.318,284.446,160.307,282.8,160.307,281.153z
		 M183.736,129.372c-1.155,0.037-1.687,0.973-1.115,1.81c0.282,0.412,0.68,0.79,1.106,1.052c1.984,1.22,3.93,2.527,6.012,3.555
		c3.899,1.927,7.883,3.684,11.832,5.51c0.124,0.057,0.252,0.113,0.384,0.147c0.542,0.14,1.073-0.048,1.365-0.474
		c0.31-0.451,0.279-1.074-0.14-1.515c-0.256-0.269-0.568-0.501-0.893-0.684c-2.896-1.632-5.78-3.288-8.711-4.857
		c-2.174-1.164-4.409-2.217-6.625-3.303c-0.707-0.347-1.431-0.661-2.162-0.953C184.412,129.511,184.001,129.442,183.736,129.372z
		 M248.731,212.545c0.88-0.4,1.643-0.71,2.371-1.086c1.003-0.518,2.001-1.054,2.962-1.645c0.62-0.381,1.113-0.932,1.311-1.662
		c0.15-0.555,0.12-1.1-0.385-1.497c-0.417-0.328-0.9-0.276-1.52,0.115c-0.724,0.456-1.43,0.952-2.193,1.332
		c-1.504,0.747-3.045,1.418-4.564,2.134c-0.526,0.248-1.071,0.482-1.54,0.818c-1.135,0.812-1.22,2.15-0.176,3.077
		c0.452,0.401,1.006,0.737,1.57,0.953c2.773,1.063,5.324,2.524,7.772,4.184c0.34,0.23,0.698,0.439,1.066,0.62
		c0.727,0.355,1.313,0.261,1.663-0.235c0.332-0.47,0.251-1.01-0.241-1.584c-0.067-0.078-0.138-0.153-0.214-0.222
		c-2.08-1.908-4.235-3.709-6.879-4.813C249.431,212.905,249.14,212.745,248.731,212.545z M286.535,190.029
		c-0.609,0.065-1.101,0.182-1.327,0.751c-0.179,0.451-0.011,0.895,0.539,1.314c0.271,0.207,0.567,0.387,0.87,0.545
		c1.611,0.84,3.189,1.753,4.848,2.484c4.546,2.003,9.126,3.928,13.694,5.882c0.189,0.081,0.384,0.151,0.582,0.202
		c0.644,0.165,1.233-0.063,1.507-0.571c0.27-0.501,0.155-1.162-0.345-1.577c-0.312-0.258-0.684-0.455-1.051-0.634
		c-1.602-0.781-3.202-1.566-4.821-2.311c-3.517-1.619-7.039-3.228-10.573-4.809c-0.904-0.405-1.856-0.706-2.797-1.024
		C287.278,190.149,286.864,190.1,286.535,190.029z M153.155,286.895c-0.075-2.342-0.122-4.744-0.237-7.142
		c-0.109-2.26-0.27-4.518-0.45-6.774c-0.06-0.748-0.205-1.496-0.39-2.224c-0.237-0.936-0.741-1.428-1.297-1.397
		c-0.6,0.033-1.022,0.617-1.131,1.633c-0.055,0.511-0.08,1.029-0.063,1.542c0.146,4.458,0.281,8.916,0.472,13.372
		c0.075,1.746,0.262,3.488,0.443,5.227c0.111,1.065,0.649,1.605,1.428,1.562c0.775-0.043,1.208-0.629,1.221-1.721
		C153.167,289.632,153.155,288.293,153.155,286.895z M123.572,203.353c0.128-0.048,0.403-0.107,0.631-0.244
		c1.441-0.862,2.885-1.721,4.304-2.621c1.505-0.955,2.984-1.953,4.473-2.933c2.205-1.452,4.429-2.877,6.6-4.377
		c0.574-0.397,1.038-0.991,1.457-1.564c0.337-0.46,0.405-1.028-0.015-1.525c-0.384-0.455-0.908-0.506-1.412-0.321
		c-0.607,0.222-1.211,0.486-1.76,0.824c-2.571,1.583-5.118,3.201-7.483,5.09c-0.748,0.598-1.573,1.101-2.366,1.642
		c-1.586,1.082-3.184,2.147-4.756,3.25c-0.355,0.249-0.706,0.576-0.912,0.948C121.869,202.357,122.493,203.348,123.572,203.353z
		 M117.082,197.608c0.207-0.064,0.582-0.135,0.919-0.289c1.619-0.74,3.252-1.453,4.833-2.268c1.979-1.02,3.927-2.103,5.861-3.207
		c1.666-0.951,3.306-1.948,4.929-2.971c0.574-0.362,1.091-0.83,1.579-1.306c0.393-0.383,0.532-0.888,0.235-1.411
		c-0.288-0.506-0.775-0.718-1.312-0.592c-0.592,0.139-1.183,0.35-1.724,0.628c-1.157,0.596-2.285,1.249-3.418,1.89
		c-3.816,2.162-7.631,4.326-11.44,6.501c-0.504,0.288-0.995,0.613-1.439,0.985c-0.395,0.331-0.519,0.802-0.318,1.308
		C115.988,197.382,116.386,197.6,117.082,197.608z M294.937,246.653c0.284-0.118,0.71-0.25,1.092-0.463
		c1.047-0.585,2.077-1.201,3.111-1.81c3.751-2.209,7.509-4.407,11.246-6.641c0.821-0.491,1.595-1.072,2.331-1.685
		c0.382-0.318,0.689-0.764,0.923-1.209c0.283-0.538,0.122-0.786-0.441-1.019c-0.732-0.303-1.355,0.032-1.953,0.348
		c-5.635,2.98-11.32,5.877-16.556,9.549c-0.333,0.234-0.666,0.492-0.926,0.8c-0.337,0.398-0.348,0.887-0.127,1.357
		C293.86,246.357,294.272,246.576,294.937,246.653z M118.529,234.463c-0.306,0.212-0.736,0.389-0.978,0.708
		c-0.285,0.376-0.217,0.891,0.116,1.24c0.398,0.418,0.841,0.811,1.32,1.131c4.773,3.175,9.612,6.241,14.759,8.788
		c0.303,0.15,0.626,0.315,0.954,0.351c0.891,0.099,1.509-0.771,1.096-1.564c-0.181-0.348-0.498-0.658-0.82-0.894
		c-4.074-2.984-8.308-5.72-12.744-8.138c-0.782-0.426-1.588-0.812-2.398-1.185C119.464,234.73,119.06,234.638,118.529,234.463z
		 M122.604,230.426c-0.259,0.185-0.643,0.352-0.864,0.643c-0.303,0.398-0.032,0.804,0.265,1.094c0.315,0.308,0.679,0.58,1.057,0.808
		c1.614,0.973,3.225,1.955,4.868,2.876c3.437,1.926,6.894,3.817,10.344,5.718c0.239,0.132,0.487,0.259,0.745,0.344
		c0.654,0.217,1.23,0.016,1.517-0.502c0.269-0.485,0.185-1.058-0.301-1.486c-0.383-0.338-0.813-0.633-1.256-0.891
		c-3.731-2.172-7.453-4.36-11.215-6.479c-1.219-0.686-2.539-1.195-3.825-1.756C123.569,230.634,123.153,230.574,122.604,230.426z
		 M147.898,141.264c0.125,1.314,0.249,2.679,0.387,4.042c0.307,3.032,0.612,6.065,0.936,9.096c0.171,1.6,0.375,3.196,0.578,4.792
		c0.034,0.268,0.117,0.536,0.218,0.789c0.182,0.456,0.525,0.712,1.032,0.696c0.478-0.015,0.866-0.357,0.981-0.902
		c0.056-0.264,0.057-0.547,0.041-0.819c-0.107-1.812-0.158-3.631-0.355-5.433c-0.461-4.221-0.986-8.434-1.505-12.648
		c-0.062-0.504-0.215-1.005-0.389-1.485c-0.164-0.451-0.52-0.728-1.028-0.702c-0.463,0.024-0.822,0.395-0.884,0.985
		C147.855,140.181,147.898,140.699,147.898,141.264z"/>
	<path fill="#B0CAD6" d="M222.405,212.518c-0.487-0.76-0.963-1.504-1.506-2.352c1.991-2.052,3.932-4.188,6.019-6.17
		c3.671-3.487,7.599-6.668,12.168-8.925c1.962-0.969,4.024-1.749,6.074-2.524c1.624-0.614,3.341-0.776,5.073-0.61
		c1.853,0.178,2.849,1.627,2.382,3.425c-0.246,0.949-0.731,1.771-1.347,2.524c-1.161,1.419-2.474,2.687-4.008,3.681
		c-1.783,1.155-3.573,2.329-5.468,3.278c-4.941,2.475-9.951,4.805-15.267,6.395C225.152,211.651,223.786,212.089,222.405,212.518z"
		/>
	<path fill="#B0CAD6" d="M221.577,218.335c0.283-0.521,0.524-0.966,0.778-1.433c0.173,0.039,0.317,0.042,0.429,0.102
		c2.534,1.353,5.324,1.992,8.02,2.896c3.871,1.298,7.726,2.642,11.38,4.493c2.336,1.183,4.562,2.528,6.547,4.252
		c1.074,0.933,2.023,1.968,2.631,3.264c0.229,0.488,0.423,1.027,0.471,1.558c0.125,1.395-0.644,2.531-1.997,2.849
		c-0.749,0.176-1.575,0.233-2.332,0.119c-2.806-0.425-5.261-1.727-7.604-3.259c-3.889-2.543-7.469-5.485-10.967-8.533
		c-2.278-1.985-4.577-3.946-6.868-5.916C221.909,218.592,221.745,218.469,221.577,218.335z"/>
	<path fill="#B0CAD6" d="M209.756,217.942c0.229,0.314,0.405,0.557,0.623,0.856c-0.227,0.191-0.436,0.352-0.628,0.532
		c-0.901,0.844-1.862,1.636-2.685,2.551c-3.101,3.448-6.03,7.059-9.444,10.211c-1.662,1.534-3.442,2.95-5.244,4.321
		c-1.397,1.062-2.973,1.814-4.69,2.29c-1.772,0.491-3.668-0.856-4.074-2.443c-0.283-1.107-0.257-2.172,0.105-3.241
		c0.495-1.466,1.342-2.694,2.497-3.72c2.072-1.842,4.435-3.241,6.899-4.466c1.689-0.839,3.408-1.629,5.155-2.34
		C202.052,220.954,205.859,219.481,209.756,217.942z"/>
	<path fill="#B0CAD6" d="M216.51,207.679c-0.547,0-1.022,0-1.565,0c-0.321-1.327-0.644-2.62-0.947-3.917
		c-0.897-3.84-1.782-7.683-2.226-11.61c-0.383-3.38-0.669-6.762-0.102-10.15c0.275-1.643,0.799-3.196,1.8-4.551
		c1.479-2,3.037-2.031,4.604-0.097c1.205,1.487,1.725,3.259,2.055,5.099c0.563,3.147,0.385,6.292-0.107,9.425
		c-0.654,4.172-1.635,8.273-2.759,12.342C216.953,205.338,216.765,206.488,216.51,207.679z"/>
	<path fill="#B0CAD6" d="M215.188,221.248c0.463,0,0.862,0,1.292,0c0.316,1.653,0.633,3.263,0.93,4.876
		c0.666,3.612,1.355,7.221,1.972,10.841c0.503,2.953,0.689,5.936,0.571,8.932c-0.069,1.759-0.318,3.496-0.984,5.135
		c-0.267,0.656-0.626,1.318-1.095,1.842c-1.721,1.921-4.311,1.613-5.593-0.63c-0.697-1.219-0.943-2.567-1.046-3.95
		c-0.219-2.967,0.035-5.91,0.566-8.82c0.975-5.335,2.035-10.655,3.051-15.983C214.988,222.787,215.067,222.071,215.188,221.248z"/>
	<path fill="#B0CAD6" d="M209.29,211.66c-3.832-1.287-7.683-2.519-11.49-3.876c-3.359-1.197-6.694-2.467-9.988-3.833
		c-1.608-0.667-3.115-1.588-4.631-2.459c-1.109-0.637-2.048-1.503-2.826-2.526c-1.15-1.513-0.824-2.352,1.015-2.691
		c1.499-0.277,2.944,0.08,4.378,0.398c2.881,0.639,5.538,1.87,7.977,3.489c2.801,1.859,5.497,3.875,8.226,5.841
		c2.395,1.725,4.773,3.473,7.157,5.213c0.108,0.079,0.204,0.176,0.305,0.265C209.373,211.54,209.332,211.6,209.29,211.66z"/>
	<path fill="#B0CAD6" d="M215.407,217.311c-0.129-0.019-0.438-0.042-0.737-0.11c-1.496-0.343-2.459-1.475-2.32-2.712
		c0.179-1.596,1.59-2.913,3.095-2.891c1.265,0.019,2.77,1.099,3.177,2.278c0.329,0.954,0.013,1.958-0.842,2.672
		C217.208,217.027,216.429,217.296,215.407,217.311z"/>
	<path fill="#B0CAD6" d="M104.849,144.74c2.507,0.054,4.57,1.088,6.266,2.887c0.952,1.01,1.49,2.255,1.537,3.622
		c0.112,3.252-1.002,5.997-3.696,7.944c-2.325,1.68-5.889,1.778-8.34-0.229c-1.656-1.356-2.85-3.043-3.688-4.998
		c-0.336-0.785-0.361-1.607-0.234-2.427C97.277,147.746,100.986,144.664,104.849,144.74z"/>
	<path fill="#B0CAD6" d="M217.117,335.811c4.133-0.121,8.039,3.416,8.517,7.954c0.153,1.452-0.317,2.778-1.263,3.913
		c-0.736,0.883-1.622,1.587-2.66,2.069c-1.968,0.914-4.041,1.305-6.204,1.057c-1.95-0.223-3.483-1.169-4.575-2.813
		c-0.893-1.345-1.364-2.837-1.511-4.431c-0.034-0.365,0.035-0.752,0.125-1.112c0.354-1.419,1.044-2.68,1.911-3.844
		C212.908,336.657,214.687,335.79,217.117,335.811z"/>
	<path fill="#B0CAD6" d="M213.854,95.446c-2.373,0.104-4.313-1.248-5.412-3.887c-0.053-0.127-0.091-0.262-0.157-0.381
		c-0.875-1.566-0.725-3.177-0.152-4.776c0.868-2.421,2.335-4.333,4.754-5.409c1.41-0.627,2.869-0.768,4.321-0.297
		c2.955,0.959,5.147,2.779,5.88,5.915c0.496,2.119-0.017,4.027-1.481,5.744C219.68,94.616,217.206,95.393,213.854,95.446z"/>
	<path fill="#B0CAD6" d="M105.419,273.872c3.538-0.004,6.471,2.115,7.462,5.502c0.223,0.763,0.288,1.647,0.154,2.428
		c-0.687,3.983-4.51,6.935-8.507,6.479c-4.096-0.467-6.989-3.607-7.54-7.455c-0.05-0.351,0.045-0.753,0.172-1.095
		C98.484,276.163,100.66,274.046,105.419,273.872z"/>
	<path fill="#B0CAD6" d="M327.109,285.383c-2.529-0.17-4.814-0.779-6.445-2.817c-1.093-1.365-1.495-2.845-0.833-4.601
		c1.017-2.697,2.676-4.703,5.491-5.564c1.891-0.578,3.648-0.32,5.2,1.023c1.369,1.184,2.291,2.642,2.786,4.36
		c0.968,3.364-1.236,6.74-4.823,7.424C328.014,285.297,327.533,285.33,327.109,285.383z"/>
	<path fill="#B0CAD6" d="M325.653,146.594c1.749,0.035,3.501,1.394,4.761,3.487c0.661,1.099,1.057,2.303,1.095,3.607
		c0.022,0.784-0.189,1.489-0.617,2.14c-1.232,1.872-3.007,2.895-5.189,3.159c-0.688,0.083-1.457-0.042-2.119-0.272
		c-3.195-1.109-4.793-3.504-5.227-6.764c-0.039-0.29,0.043-0.616,0.139-0.902C319.353,148.518,322.164,146.548,325.653,146.594z"/>
</g>
</svg>
